# xmcd CD database file
#
# Track frame offsets:
#	182
#	26652
#	71027
#	86522
#	108860
#	126877
#	141875
#	159420
#	176530
#	197505
#	207027
#	231380
#	242067
#	257867
#	274195
#
# Disc length: 4082 seconds
#
# Revision: 5
# Processed by: cddbd v1.5.2PL0 Copyright (c) Steve Scherf et al.
# Submitted via: CDex 1.51
#
DISCID=d30ff00f
DTITLE=Muddy Waters - Collection Gold - 15 Titres Originaux
DYEAR=1992
DGENRE=Blues
TTITLE0=Howling Wolf  (live)  [1978]
TTITLE1=Deep Down In Florida  (live)  [1978]
TTITLE2=I'm Ready  [1977]
TTITLE3=Copper Brown  [1977]
TTITLE4=I'm Your Hoochie Coochie Man  [1977]
TTITLE5=Good Morning Little School Girl  [1977]
TTITLE6=I'm a King Bee  [1980]
TTITLE7=Mean Old Frisco Blues  [1980]
TTITLE8=Champagne and Reefer  [1980]
TTITLE9=No Escape From The Blues  [1980]
TTITLE10=Mannish Boy  [1976]
TTITLE11=I Want To Be Loved  [1976]
TTITLE12=I Can't Be Satisfied  [1976]
TTITLE13=The Blues Had A Baby and They Named It Rock and Roll (#2)  [1976]
TTITLE14=Little Girl  [1976]
EXTD=YEAR: 1992
EXTT0=
EXTT1=
EXTT2=
EXTT3=
EXTT4=
EXTT5=
EXTT6=
EXTT7=
EXTT8=
EXTT9=
EXTT10=
EXTT11=
EXTT12=
EXTT13=
EXTT14=
PLAYORDER=
